<svg xmlns="http://www.w3.org/2000/svg" viewBox="0 0 469 400.54"><defs><style>.cls-1{fill:#f5f5f5;}.cls-2{fill:#ebebeb;}.cls-3{fill: var(--primary);}.cls-4,.cls-9{opacity:0.1;}.cls-10,.cls-5{fill:#fff;}.cls-12,.cls-6{fill:#fafafa;}.cls-7{fill:#e0e0e0;}.cls-8{fill:#455a64;}.cls-10{opacity:0.4;}.cls-11{opacity:0.2;}.cls-12{stroke:#e0e0e0;stroke-miterlimit:10;stroke-width:1.17px;}.cls-13{fill:#37474f;}</style></defs><g id="Floor"><path id="Floor-2" data-name="Floor" class="cls-1" d="M67.25,367.13c89.68,45.22,235.06,45.22,324.73,0s89.67-118.52,0-163.73-235.06-45.22-324.73,0S-22.42,321.92,67.25,367.13Z" transform="translate(0 -0.5)"/></g><g id="Shadows"><path id="Shadow" class="cls-2" d="M360.52,294.9c4.91,2.8,14.57,1.83,21.57-2.15l40.35-23.11c7-4,8.68-9.49,3.76-12.3s-14.59-1.84-21.59,2.15l-40.32,23.12C357.29,286.6,355.6,292.1,360.52,294.9Z" transform="translate(0 -0.5)"/><polygon id="Shadow-2" data-name="Shadow" class="cls-2" points="117.62 315.71 76.58 292.34 117.62 268.98 117.62 315.71"/><polygon id="Shadow-3" data-name="Shadow" class="cls-2" points="233.61 329.69 167.47 292 233.63 254.39 233.61 329.69"/></g><g id="Plants"><g id="Plants-2" data-name="Plants"><path class="cls-3" d="M62.11,261.57c.11-9.46-6.59-29.15-16.4-41.56S20.35,198.42,9.18,202c-10.41,3.38-9.45,16.8,3,25.83s31.23,20.41,36.57,35.84l11.37,19Z" transform="translate(0 -0.5)"/><path class="cls-4" d="M62.11,261.57c.11-9.46-6.59-29.15-16.4-41.56S20.35,198.42,9.18,202c-10.41,3.38-9.45,16.8,3,25.83s31.23,20.41,36.57,35.84l11.37,19Z" transform="translate(0 -0.5)"/><path class="cls-5" d="M62.66,274.54A.71.71,0,0,1,62,274c-6-32.39-32.22-59-48-65a.71.71,0,0,1-.41-.9.7.7,0,0,1,.91-.39c16.1,6.1,42.77,33.12,48.89,66a.69.69,0,0,1-.56.81Z" transform="translate(0 -0.5)"/><path class="cls-3" d="M57.52,295.16C56,289.82,49.56,281,39,273.58c-11.7-8.16-26.57-12-29.94-18.31-4-7.55,2.46-14.57,14.55-12.94s33.2,18.17,36.3,42.75Z" transform="translate(0 -0.5)"/><path class="cls-5" d="M59.93,289.61a.73.73,0,0,1-.6-.47c-9.71-27.8-31-37.77-40.91-39.16a.69.69,0,1,1,.2-1.37c11,1.54,32.13,11.7,42,40.08a.69.69,0,0,1-.44.88A.57.57,0,0,1,59.93,289.61Z" transform="translate(0 -0.5)"/></g><g id="Plants-3" data-name="Plants"><path class="cls-3" d="M420.32,234.63s1.35-20,13.28-34.78,11.19-20.91,3-23.9-27.33,14.86-23.08,38.77S420.32,234.63,420.32,234.63Z" transform="translate(0 -0.5)"/><path class="cls-4" d="M420.32,234.63s1.35-20,13.28-34.78,11.19-20.91,3-23.9-27.33,14.86-23.08,38.77S420.32,234.63,420.32,234.63Z" transform="translate(0 -0.5)"/><path class="cls-5" d="M416.68,223.23a.47.47,0,0,1-.47-.44c-1.39-22,14.35-40,20.24-44.09a.47.47,0,0,1,.54.76c-5.78,4-21.21,21.69-19.84,43.28a.47.47,0,0,1-.44.49Z" transform="translate(0 -0.5)"/><path class="cls-3" d="M417.08,251.11A107.69,107.69,0,0,0,433.5,255c9.24,1.44,13.31-2.91,13.31-2.91s-3.63-8.55-8.88-10.94a51.84,51.84,0,0,1,16,6.48s5.64.08,7.88-8.4c0,0-3.34-5.11-14.55-7.87,0,0,6.82-1.69,16.65.78.74.29,3.88-10.69,4.83-15.75s-1.11-5-5.11-6.07-17.26-4-19.77-1.81-3.78,9.59-3.78,9.59a17.25,17.25,0,0,1-.37-9.41s-3.61-1.39-9.2.22c-4.57,1.31-4.79,4.38-4.58,7.84a33.42,33.42,0,0,0,2,8.81s-3.57-4.51-3.68-14.27c0,0-9.35,4.58-10.95,13.74C412.44,230,411.22,244.53,417.08,251.11Z" transform="translate(0 -0.5)"/><path class="cls-5" d="M418.84,249.33a.52.52,0,0,0,.47-.29c7.45-15.27,35.16-33,45.09-34.92a.51.51,0,0,0,.41-.6.52.52,0,0,0-.61-.4c-10.09,1.93-38.25,20-45.82,35.48a.5.5,0,0,0,.24.68A.59.59,0,0,0,418.84,249.33Z" transform="translate(0 -0.5)"/></g></g><g id="Computer_Screen" data-name="Computer Screen"><path class="cls-6" d="M58.49,302.22c-1.15,0-1.84-.93-1.84-2.49V132.13L264.78,13.62V180.55a8.89,8.89,0,0,1-4.08,7L60.16,301.71a3.55,3.55,0,0,1-1.67.51Z" transform="translate(0 -0.5)"/><path class="cls-7" d="M264.2,14.63V180.55a8.35,8.35,0,0,1-3.79,6.46L59.87,301.2a2.9,2.9,0,0,1-1.38.44c-1.09,0-1.25-1.2-1.25-1.91V132.47l207-117.84m1.17-2L56.07,131.79V299.73c0,1.95,1,3.08,2.42,3.08a4,4,0,0,0,1.95-.59L261,188a9.53,9.53,0,0,0,4.38-7.48V12.62Z" transform="translate(0 -0.5)"/><polygon class="cls-3" points="56.07 131.29 56.07 159.33 265.37 40.16 265.37 12.12 56.07 131.29"/><path class="cls-6" d="M72.48,133.29v4c0,.82.6,1.16,1.32.75l64.35-36.64v-7L73.8,131.05A2.85,2.85,0,0,0,72.48,133.29Z" transform="translate(0 -0.5)"/><path class="cls-8" d="M145,90.48c.73-.41,1.31-.08,1.31.75v4A2.84,2.84,0,0,1,145,97.49l-6.89,3.93v-7Z" transform="translate(0 -0.5)"/><path class="cls-8" d="M56.07,122.75a9.53,9.53,0,0,1,4.37-7.47L261,1.09c2.42-1.38,4.38-.26,4.38,2.49v9L56.07,131.79Z" transform="translate(0 -0.5)"/><path class="cls-3" d="M242.11,16.54a4.44,4.44,0,0,0-2.06,3.5c0,1.29.92,1.82,2.06,1.17a4.47,4.47,0,0,0,2-3.51C244.16,16.41,243.24,15.89,242.11,16.54Z" transform="translate(0 -0.5)"/><path class="cls-3" d="M248.61,12.83a4.44,4.44,0,0,0-2.06,3.5c0,1.3.92,1.82,2.06,1.17a4.45,4.45,0,0,0,2-3.5C250.66,12.71,249.74,12.18,248.61,12.83Z" transform="translate(0 -0.5)"/><path class="cls-3" d="M255.11,9.12a4.47,4.47,0,0,0-2.06,3.51c0,1.29.92,1.81,2.06,1.17a4.48,4.48,0,0,0,2.05-3.51C257.16,9,256.24,8.48,255.11,9.12Z" transform="translate(0 -0.5)"/><g class="cls-9"><path d="M199.7,58.92a9.76,9.76,0,0,0-4.48,7.66c0,2.82,2,4,4.48,2.56a9.75,9.75,0,0,0,4.49-7.67C204.19,58.65,202.18,57.51,199.7,58.92Z" transform="translate(0 -0.5)"/><path d="M179.19,70.6a9.76,9.76,0,0,0-4.49,7.67c0,2.82,2,4,4.49,2.55a9.76,9.76,0,0,0,4.48-7.66C183.67,70.34,181.66,69.19,179.19,70.6Z" transform="translate(0 -0.5)"/><path d="M220.22,47.24a9.76,9.76,0,0,0-4.48,7.66c0,2.82,2,4,4.48,2.55a9.75,9.75,0,0,0,4.49-7.66C224.71,47,222.7,45.83,220.22,47.24Z" transform="translate(0 -0.5)"/><path d="M240.74,35.53a9.76,9.76,0,0,0-4.48,7.66c0,2.82,2,4,4.48,2.56a9.75,9.75,0,0,0,4.49-7.67C245.23,35.26,243.22,34.12,240.74,35.53Z" transform="translate(0 -0.5)"/></g><path class="cls-7" d="M76.86,162l48.7-27.74c2.42-1.37,4.38-.26,4.38,2.5v46.11a9.53,9.53,0,0,1-4.38,7.48L76.86,218.1c-2.42,1.37-4.37.26-4.37-2.49V169.49A9.5,9.5,0,0,1,76.86,162Z" transform="translate(0 -0.5)"/><path class="cls-7" d="M146.63,122.29,248.68,64.18c2.42-1.37,4.37-.26,4.37,2.49v46.12a9.48,9.48,0,0,1-4.37,7.47L146.63,178.37c-2.42,1.38-4.37.26-4.37-2.49V129.76A9.51,9.51,0,0,1,146.63,122.29Z" transform="translate(0 -0.5)"/><path class="cls-7" d="M76.86,232.12,154.29,188c2.42-1.38,4.38-.4,4.38,2.18a9.25,9.25,0,0,1-4.38,7.17L76.86,241.46c-2.42,1.38-4.37.4-4.37-2.18A9.2,9.2,0,0,1,76.86,232.12Z" transform="translate(0 -0.5)"/><path class="cls-7" d="M76.86,248.47l77.43-44.09c2.42-1.37,4.38-.39,4.38,2.19a9.23,9.23,0,0,1-4.38,7.16L76.86,257.82c-2.42,1.38-4.37.4-4.37-2.18A9.23,9.23,0,0,1,76.86,248.47Z" transform="translate(0 -0.5)"/><path class="cls-7" d="M76.86,264.83l77.43-44.09c2.42-1.38,4.38-.4,4.38,2.18a9.21,9.21,0,0,1-4.38,7.16L76.86,274.17c-2.42,1.38-4.37.4-4.37-2.18A9.2,9.2,0,0,1,76.86,264.83Z" transform="translate(0 -0.5)"/></g><g id="Envelope"><g id="Letter"><path class="cls-3" d="M113.52,209.37a5.7,5.7,0,0,1,2.63-4.48l134.28-76.46a5.85,5.85,0,0,1,5.25,0l3,1.68a5.72,5.72,0,0,1,2.62,4.49V236.11a5.73,5.73,0,0,1-2.62,4.48L124.36,317.05a5.91,5.91,0,0,1-5.25,0l-3-1.69a5.74,5.74,0,0,1-2.63-4.48Z" transform="translate(0 -0.5)"/><path class="cls-10" d="M114.29,206.82l7.45,4.24,138.75-79a5.4,5.4,0,0,0-1.85-1.94l-3-1.68a5.82,5.82,0,0,0-5.24,0L116.15,204.89A5.24,5.24,0,0,0,114.29,206.82Z" transform="translate(0 -0.5)"/><path class="cls-4" d="M113.52,209.37V310.88a5.7,5.7,0,0,0,2.63,4.48l3,1.69a4.75,4.75,0,0,0,.72.32,5.71,5.71,0,0,0,1.08.24,6.53,6.53,0,0,0,2.07-.07l.51-.14a1.66,1.66,0,0,0,.31-.12,1.58,1.58,0,0,1-1.25,0,1.79,1.79,0,0,1-.81-1.71V214.05a2.27,2.27,0,0,1,1.37-2.21l-1.37-.78-7.45-4.24A5.3,5.3,0,0,0,113.52,209.37Z" transform="translate(0 -0.5)"/><path class="cls-11" d="M121.74,211.06,183.93,234a10.18,10.18,0,0,0,12-3.89l10-15.09L261,131.76,207.9,215.55l53.36,20.6a5.28,5.28,0,0,1-.82,2.58l-52.69-22.94L196.14,234.1a10.17,10.17,0,0,1-12.65,3.84l-8.26-3.6-52.68,82.92a1.79,1.79,0,0,1-.81-1.71v-1.69L175,234.23Z" transform="translate(0 -0.5)"/></g></g><g id="Mobile_Screen" data-name="Mobile Screen"><path class="cls-12" d="M232.54,94.52V327.58c0,2.75,2,3.86,4.37,2.49l106.16-60.45a9.5,9.5,0,0,0,4.38-7.47V29.09c0-2.75-2-3.86-4.38-2.49L236.91,87.05A9.48,9.48,0,0,0,232.54,94.52Z" transform="translate(0 -0.5)"/><path class="cls-8" d="M238.69,98.86a2.36,2.36,0,0,1,1.14-1.81l12.09-6.89c.63-.35,1.14-.12,1.14.53a2.36,2.36,0,0,1-1.14,1.81l-12.09,6.88C239.2,99.74,238.69,99.51,238.69,98.86Z" transform="translate(0 -0.5)"/><path class="cls-8" d="M238.69,103.5a2.36,2.36,0,0,1,1.14-1.81l12.09-6.88c.63-.36,1.14-.13,1.14.52a2.36,2.36,0,0,1-1.14,1.81L239.83,104C239.2,104.38,238.69,104.15,238.69,103.5Z" transform="translate(0 -0.5)"/><path class="cls-8" d="M238.69,108.15a2.36,2.36,0,0,1,1.14-1.82l12.09-6.88c.63-.36,1.14-.13,1.14.52a2.35,2.35,0,0,1-1.14,1.81l-12.09,6.89C239.2,109,238.69,108.79,238.69,108.15Z" transform="translate(0 -0.5)"/><path class="cls-13" d="M339.24,48.38V46.52a.12.12,0,0,0-.19-.11l-1.45.64a.18.18,0,0,1-.25-.11,3.07,3.07,0,0,0-.32-.71.39.39,0,0,1,0-.35L338,44a.21.21,0,0,0-.09-.28l-1.05-.6a.23.23,0,0,0-.29.07l-1.21,1.79a.39.39,0,0,1-.32.16,3,3,0,0,0-.78.08A.17.17,0,0,1,334,45l-.16-1.57a.12.12,0,0,0-.2-.1l-1.63.93a.44.44,0,0,0-.2.3l-.16,1.79a.61.61,0,0,1-.17.34,10.26,10.26,0,0,0-.91.95.34.34,0,0,1-.32.09l-1-.36a.25.25,0,0,0-.29.1l-1.2,2.06a.23.23,0,0,0,0,.3l.84.72a.29.29,0,0,1,.08.32,11.22,11.22,0,0,0-.38,1.25.58.58,0,0,1-.21.31l-1.49,1a.46.46,0,0,0-.17.32v1.86a.12.12,0,0,0,.19.12l1.46-.65a.18.18,0,0,1,.24.11,3,3,0,0,0,.32.72.37.37,0,0,1,0,.34l-1,1.93a.21.21,0,0,0,.09.28l1.05.6a.21.21,0,0,0,.29-.07l1.21-1.79a.38.38,0,0,1,.32-.15,3.56,3.56,0,0,0,.78-.08.17.17,0,0,1,.22.15l.16,1.57c0,.11.1.15.2.1l1.63-.93a.46.46,0,0,0,.2-.31l.16-1.79a.59.59,0,0,1,.17-.33,10.26,10.26,0,0,0,.91-.95.3.3,0,0,1,.32-.09l1.05.36a.24.24,0,0,0,.29-.11l1.2-2a.25.25,0,0,0,0-.31l-.84-.71a.32.32,0,0,1-.08-.32,11.22,11.22,0,0,0,.38-1.25.51.51,0,0,1,.21-.31l1.49-1A.43.43,0,0,0,339.24,48.38Zm-6.39,5.86c-1.53.87-2.77.16-2.77-1.57A6,6,0,0,1,332.85,48c1.52-.87,2.76-.17,2.76,1.57A6,6,0,0,1,332.85,54.24Z" transform="translate(0 -0.5)"/><path class="cls-8" d="M290,94.32c12.4-7.07,22.46-1.34,22.46,12.79s-10.06,31.3-22.46,38.36-22.46,1.34-22.46-12.79S277.59,101.38,290,94.32Z" transform="translate(0 -0.5)"/><path class="cls-3" d="M289.83,105.43c4-2.29,7.29-.43,7.29,4.15A15.82,15.82,0,0,1,289.83,122c-4,2.29-7.28.43-7.28-4.15A15.87,15.87,0,0,1,289.83,105.43Z" transform="translate(0 -0.5)"/><path class="cls-3" d="M304.19,129.87c0-7.53-5.36-10.58-12-6.82l-4.13,2.36c-6.61,3.76-12,12.92-12,20.45v2a12.69,12.69,0,0,0,3.86.59,20.56,20.56,0,0,0,10-3,44,44,0,0,0,14.2-13.85Z" transform="translate(0 -0.5)"/><path class="cls-3" d="M269.72,166.49l40.54-23.09c1.21-.69,2.19-.2,2.19,1.09a4.63,4.63,0,0,1-2.19,3.59l-40.54,23.08c-1.21.69-2.19.2-2.19-1.09A4.61,4.61,0,0,1,269.72,166.49Z" transform="translate(0 -0.5)"/><path class="cls-8" d="M265.37,183l49.24-28.07c1.21-.69,2.19-.2,2.19,1.09a4.6,4.6,0,0,1-2.19,3.58l-49.24,28.07c-1.21.69-2.19.2-2.19-1.09A4.61,4.61,0,0,1,265.37,183Z" transform="translate(0 -0.5)"/><path class="cls-13" d="M315.93,177.56l13.79-7.85c.72-.42,1.31-.23,1.31.42a2.59,2.59,0,0,1-1.31,1.91l-13.79,7.85c-.73.42-1.32.23-1.32-.42A2.58,2.58,0,0,1,315.93,177.56Z" transform="translate(0 -0.5)"/><path class="cls-3" d="M247,212.12l20.24-11.53c1.21-.69,2.19-.13,2.19,1.24v13.72a4.75,4.75,0,0,1-2.19,3.73L247,230.81c-1.21.69-2.19.13-2.19-1.24V215.85A4.75,4.75,0,0,1,247,212.12Z" transform="translate(0 -0.5)"/><path class="cls-6" d="M250.27,214l13.78-7.85c.73-.41,1.32-.22,1.32.42a2.58,2.58,0,0,1-1.32,1.92l-13.78,7.85c-.73.41-1.32.22-1.32-.42A2.6,2.6,0,0,1,250.27,214Z" transform="translate(0 -0.5)"/><path class="cls-6" d="M249,221v4c0,.83.59,1.16,1.32.75l13.78-7.86a2.83,2.83,0,0,0,1.32-2.24v-4c0-.82-.59-1.16-1.31-.75l-13.79,7.86A2.83,2.83,0,0,0,249,221Z" transform="translate(0 -0.5)"/><path class="cls-3" d="M279.87,193.42l20.24-11.53c1.21-.68,2.19-.13,2.19,1.25v13.71a4.76,4.76,0,0,1-2.19,3.74l-20.24,11.53c-1.21.69-2.19.13-2.19-1.25V197.16A4.76,4.76,0,0,1,279.87,193.42Z" transform="translate(0 -0.5)"/><path class="cls-6" d="M283.1,195.34l13.79-7.85c.72-.41,1.31-.23,1.31.42a2.63,2.63,0,0,1-1.31,1.92l-13.79,7.85c-.73.41-1.32.22-1.32-.42A2.58,2.58,0,0,1,283.1,195.34Z" transform="translate(0 -0.5)"/><path class="cls-6" d="M281.78,202.26v4c0,.82.59,1.16,1.32.74l13.79-7.85a2.85,2.85,0,0,0,1.31-2.24v-4c0-.83-.59-1.16-1.31-.75L283.1,200A2.87,2.87,0,0,0,281.78,202.26Z" transform="translate(0 -0.5)"/><path class="cls-3" d="M312.7,174.73,333,163.2c1.2-.69,2.18-.13,2.18,1.25v13.71a4.75,4.75,0,0,1-2.18,3.73L312.7,193.42c-1.21.69-2.19.13-2.19-1.24V178.47A4.76,4.76,0,0,1,312.7,174.73Z" transform="translate(0 -0.5)"/><path class="cls-6" d="M315.93,176.65l13.79-7.86c.72-.41,1.31-.22,1.31.43a2.59,2.59,0,0,1-1.31,1.91L315.93,179c-.73.42-1.32.23-1.32-.42A2.58,2.58,0,0,1,315.93,176.65Z" transform="translate(0 -0.5)"/><path class="cls-6" d="M314.61,183.56v4c0,.83.59,1.16,1.32.75l13.79-7.85a2.88,2.88,0,0,0,1.31-2.24v-4c0-.82-.59-1.16-1.31-.74l-13.79,7.85A2.85,2.85,0,0,0,314.61,183.56Z" transform="translate(0 -0.5)"/><path class="cls-7" d="M249.22,243.59l81.54-46.43c2.41-1.38,4.37-.4,4.37,2.18a9.26,9.26,0,0,1-4.37,7.17l-81.54,46.42c-2.41,1.38-4.37.4-4.37-2.18A9.23,9.23,0,0,1,249.22,243.59Z" transform="translate(0 -0.5)"/><path class="cls-7" d="M249.22,262.28l81.54-46.43c2.41-1.37,4.37-.39,4.37,2.19a9.24,9.24,0,0,1-4.37,7.16l-81.54,46.43c-2.41,1.37-4.37.39-4.37-2.19A9.24,9.24,0,0,1,249.22,262.28Z" transform="translate(0 -0.5)"/><path class="cls-3" d="M275.76,270.54l28.46-16.21c1.21-.69,2.19-.13,2.19,1.25v9a4.75,4.75,0,0,1-2.19,3.73l-28.46,16.21c-1.21.68-2.18.13-2.18-1.25v-9A4.73,4.73,0,0,1,275.76,270.54Z" transform="translate(0 -0.5)"/><path class="cls-6" d="M251,245a4.45,4.45,0,0,0-2.05,3.5c0,1.29.92,1.82,2.05,1.17a4.44,4.44,0,0,0,2.06-3.5C253.06,244.84,252.14,244.31,251,245Z" transform="translate(0 -0.5)"/><path class="cls-6" d="M257.5,241.25a4.48,4.48,0,0,0-2.05,3.51c0,1.29.92,1.81,2.05,1.17a4.47,4.47,0,0,0,2.06-3.51C259.56,241.13,258.64,240.61,257.5,241.25Z" transform="translate(0 -0.5)"/><path class="cls-6" d="M264,237.55a4.45,4.45,0,0,0-2.05,3.5c0,1.29.92,1.81,2.05,1.17a4.47,4.47,0,0,0,2.06-3.51C266.06,237.42,265.14,236.9,264,237.55Z" transform="translate(0 -0.5)"/><path class="cls-6" d="M270.51,233.84a4.44,4.44,0,0,0-2.06,3.5c0,1.29.92,1.82,2.06,1.17a4.45,4.45,0,0,0,2.05-3.5C272.56,233.72,271.64,233.19,270.51,233.84Z" transform="translate(0 -0.5)"/><path class="cls-6" d="M277,230.13a4.47,4.47,0,0,0-2.06,3.51c0,1.29.92,1.81,2.06,1.17a4.48,4.48,0,0,0,2.05-3.51C279.06,230,278.14,229.49,277,230.13Z" transform="translate(0 -0.5)"/><path class="cls-6" d="M283.51,226.43a4.44,4.44,0,0,0-2.06,3.5c0,1.29.92,1.81,2.06,1.17a4.48,4.48,0,0,0,2.05-3.51C285.56,226.3,284.64,225.78,283.51,226.43Z" transform="translate(0 -0.5)"/><path class="cls-6" d="M290,222.72a4.43,4.43,0,0,0-2.05,3.5c0,1.3.91,1.82,2.05,1.17a4.45,4.45,0,0,0,2.05-3.5C292.06,222.6,291.14,222.07,290,222.72Z" transform="translate(0 -0.5)"/><path class="cls-6" d="M251,263.67a4.48,4.48,0,0,0-2.05,3.51c0,1.29.92,1.81,2.05,1.17a4.47,4.47,0,0,0,2.06-3.51C253.06,263.55,252.14,263,251,263.67Z" transform="translate(0 -0.5)"/><path class="cls-6" d="M257.5,260a4.45,4.45,0,0,0-2.05,3.5c0,1.29.92,1.82,2.05,1.17a4.44,4.44,0,0,0,2.06-3.51C259.56,259.84,258.64,259.32,257.5,260Z" transform="translate(0 -0.5)"/><path class="cls-6" d="M264,256.26a4.45,4.45,0,0,0-2.05,3.5c0,1.3.92,1.82,2.05,1.17a4.44,4.44,0,0,0,2.06-3.5C266.06,256.14,265.14,255.61,264,256.26Z" transform="translate(0 -0.5)"/><path class="cls-6" d="M270.51,252.55a4.47,4.47,0,0,0-2.06,3.51c0,1.29.92,1.81,2.06,1.17a4.48,4.48,0,0,0,2.05-3.51C272.56,252.43,271.64,251.91,270.51,252.55Z" transform="translate(0 -0.5)"/><path class="cls-6" d="M277,248.85a4.44,4.44,0,0,0-2.06,3.5c0,1.29.92,1.82,2.06,1.17a4.45,4.45,0,0,0,2.05-3.5C279.06,248.72,278.14,248.2,277,248.85Z" transform="translate(0 -0.5)"/><path class="cls-6" d="M283.51,245.14a4.44,4.44,0,0,0-2.06,3.51c0,1.29.92,1.81,2.06,1.16a4.45,4.45,0,0,0,2.05-3.5C285.56,245,284.64,244.49,283.51,245.14Z" transform="translate(0 -0.5)"/><path class="cls-6" d="M290,241.43a4.46,4.46,0,0,0-2.05,3.51c0,1.29.91,1.81,2.05,1.17a4.48,4.48,0,0,0,2.05-3.51C292.06,241.31,291.14,240.79,290,241.43Z" transform="translate(0 -0.5)"/></g><g id="Key"><path class="cls-8" d="M381.18,283.56a19.78,19.78,0,0,1-9.94-2.6c-7.29-4.14-11.46-12.82-11.46-23.8,0-19.31,12.45-41.53,28.33-50.58,8.56-4.87,17.05-5.39,23.93-1.48,7.28,4.15,11.46,12.82,11.46,23.8,0,19.32-12.45,41.53-28.34,50.58A28.48,28.48,0,0,1,381.18,283.56Zm20.88-67.14a15.16,15.16,0,0,0-6.9,2.2c-11.54,6.57-21.29,24.22-21.29,38.54,0,5.79,1.65,10.19,4.41,11.76,3.15,1.79,7.51-.16,9.83-1.48,11.54-6.57,21.29-24.22,21.29-38.54,0-5.79-1.65-10.19-4.41-11.76A5.79,5.79,0,0,0,402.06,216.42Z" transform="translate(0 -0.5)"/><path class="cls-13" d="M411.92,232c0-10.85-6.93-14.86-6.93-14.86h0c2.76,1.57,4.41,6,4.41,11.76,0,14.32-9.75,32-21.29,38.54-2.32,1.32-6.68,3.27-9.83,1.48,0,0,5.85,3.58,13.93-.76C403.91,261.86,411.92,246.31,411.92,232Z" transform="translate(0 -0.5)"/><path class="cls-13" d="M400.81,96.4a7.29,7.29,0,0,0-14.58,0v0h0V210.71h0a3.56,3.56,0,0,0,2.14,2.94,11.52,11.52,0,0,0,10.3,0,3.58,3.58,0,0,0,2.14-2.94h0V96.42h0Z" transform="translate(0 -0.5)"/><path class="cls-8" d="M395,121.94a9.18,9.18,0,0,0-4.2-7.19,3,3,0,0,0-3-.26h0l-18,10.21-.43.26a.77.77,0,0,0-.18.1,5.26,5.26,0,0,0-.86.7,5.79,5.79,0,0,0-1.76,4.16,5.87,5.87,0,0,0,3.1,5.17,6,6,0,0,0,5.68,0l.35-.19,18.09-10.28h0A2.91,2.91,0,0,0,395,121.94Z" transform="translate(0 -0.5)"/><path class="cls-8" d="M395,150.56a9.14,9.14,0,0,0-4.2-7.18,2.94,2.94,0,0,0-3-.27h0L366.69,155l-.44.26a1,1,0,0,0-.17.1,5.85,5.85,0,0,0,.47,10,6.08,6.08,0,0,0,2.85.71,6,6,0,0,0,2.84-.71l.34-.19,21.19-12h0A2.91,2.91,0,0,0,395,150.56Z" transform="translate(0 -0.5)"/></g></svg>